<?xml version="1.0" encoding="UTF-8" standalone="no"?>
<!-- Created with Inkscape (http://www.inkscape.org/) -->

<svg
   width="199.99998"
   height="100"
   viewBox="0 0 20.202019 10.10101"
   version="1.1"
   id="svg13242"
   inkscape:version="1.2.2 (b0a84865, 2022-12-01)"
   sodipodi:docname="globe.svg"
   xmlns:inkscape="http://www.inkscape.org/namespaces/inkscape"
   xmlns:sodipodi="http://sodipodi.sourceforge.net/DTD/sodipodi-0.dtd"
   xmlns="http://www.w3.org/2000/svg"
   xmlns:svg="http://www.w3.org/2000/svg">
  <sodipodi:namedview
     id="namedview13244"
     pagecolor="#ffffff"
     bordercolor="#000000"
     borderopacity="0.25"
     inkscape:showpageshadow="2"
     inkscape:pageopacity="0.0"
     inkscape:pagecheckerboard="0"
     inkscape:deskcolor="#d1d1d1"
     inkscape:document-units="px"
     showgrid="true"
     inkscape:zoom="1.1351306"
     inkscape:cx="18.940553"
     inkscape:cy="280.58447"
     inkscape:window-width="1920"
     inkscape:window-height="1027"
     inkscape:window-x="0"
     inkscape:window-y="394"
     inkscape:window-maximized="0"
     inkscape:current-layer="layer1">
    <inkscape:grid
       type="xygrid"
       id="grid13363"
       empspacing="4"
       originx="8.0965867e-10"
       originy="-5.488203e-09" />
  </sodipodi:namedview>
  <defs
     id="defs13239">
    <clipPath
       clipPathUnits="userSpaceOnUse"
       id="clipPath19190">
      <circle
         style="fill:#0028ff;fill-opacity:1;stroke:none;stroke-width:1;stroke-linecap:round"
         id="circle19192"
         cx="6.3499999"
         cy="6.3499999"
         r="5.2916665" />
    </clipPath>
    <clipPath
       clipPathUnits="userSpaceOnUse"
       id="clipPath4453">
      <path
         id="path4455"
         clip-path="none"
         style="display:inline;fill:#750200;fill-opacity:1;stroke-width:0.954426;stroke-linecap:round"
         d="M 11.159343,6.1088383 A 5.050505,5.050505 0 0 1 6.1088383,11.159343 5.050505,5.050505 0 0 1 1.0583333,6.1088383 5.050505,5.050505 0 0 1 6.1088383,1.0583333 5.050505,5.050505 0 0 1 11.159343,6.1088383 Z" />
    </clipPath>
  </defs>
  <g
     inkscape:label="Layer 1"
     inkscape:groupmode="layer"
     id="layer1"
     style="display:inline"
     transform="translate(-1.0583332,-1.0583332)">
    <g
       id="g2189"
       inkscape:label="rest"
       clip-path="url(#clipPath4453)">
      <g
         id="g4523"
         style="display:inline;fill:#750200;fill-opacity:0.345763"
         inkscape:label="elements"
         transform="matrix(0.95442617,0,0,0.95442616,0.04823222,0.04823223)">
        <rect
           style="display:inline;fill:#3465a4;fill-opacity:1;stroke:none;stroke-width:0.565686"
           id="rect12921"
           width="10.583333"
           height="10.583333"
           x="1.0583333"
           y="1.0583333" />
        <rect
           style="fill:#ffffff;fill-opacity:1;stroke:none;stroke-width:0.707107;stroke-linecap:round"
           id="rect4519"
           width="10.583333"
           height="0.5291667"
           x="1.0583333"
           y="1.0583333" />
        <rect
           style="display:inline;fill:#ffffff;fill-opacity:1;stroke:none;stroke-width:0.707107;stroke-linecap:round"
           id="rect4521"
           width="10.583333"
           height="0.52916628"
           x="1.0583333"
           y="11.1125" />
      </g>
      <g
         id="group1"
         inkscape:label="group1"
         style="display:inline">
        <path
           style="display:inline;fill:#c17d11;fill-opacity:1;stroke:none;stroke-width:0.529065"
           d="m 11.375556,6.2496358 c 0.254679,0.010264 0.997347,0.00344 1.284978,0.2873607 0.287631,0.283928 0.159078,0.8894775 0.09261,1.2007544 -0.06647,0.311277 -0.199499,0.8578137 -0.567243,0.8518175 -0.367745,-0.00597 -0.463631,-0.8855839 -0.578818,-1.0262861 -0.115188,-0.140702 -1.032839,0.063569 -1.053451,-0.5028801 -0.02061,-0.56645 0.567243,-0.8210292 0.821924,-0.8107664 z"
           id="path4400"
           sodipodi:nodetypes="zzzzzzz" />
        <path
           style="display:inline;fill:#c17d11;fill-opacity:1;stroke:none;stroke-width:0.529065"
           d="m 11.375556,6.2496358 c 0.254679,0.010264 0.997347,0.00344 1.284978,0.2873607 0.287631,0.283928 0.159078,0.8894775 0.09261,1.2007544 -0.06647,0.311277 -0.199499,0.8578137 -0.567243,0.8518175 -0.367745,-0.00597 -0.463631,-0.8855839 -0.578818,-1.0262861 -0.115188,-0.140702 -1.032839,0.063569 -1.053451,-0.5028801 -0.02061,-0.56645 0.567243,-0.8210292 0.821924,-0.8107664 z"
           id="path4402"
           sodipodi:nodetypes="zzzzzzz" />
        <path
           style="display:inline;fill:#c17d11;fill-opacity:1;stroke:none;stroke-width:0.348119"
           d="m 18.234182,7.4404206 c 0.149545,0.00119 0.170752,0.2917283 0.483461,0.3045073 0.104172,0.00425 0.130879,-0.3680779 0.241299,-0.3661785 0.107686,0.00185 0.44198,0.7038541 0.399862,0.9165331 -0.04212,0.2126792 -0.204718,0.940208 -0.437747,0.936132 -0.09016,-0.00157 -0.213823,-0.473813 -0.690282,-0.5580817 -0.548499,-0.09701 -0.616126,0.5026601 -0.79511,0.3223044 -0.08613,-0.086787 -0.374822,-0.3612873 -0.264835,-0.7280765 0.109985,-0.366789 0.818073,-0.8290933 1.063352,-0.8271401 z"
           id="path4404"
           sodipodi:nodetypes="ssszssszs" />
        <path
           style="display:inline;fill:#4e9a06;fill-opacity:1;stroke:none;stroke-width:0.586305"
           d="m 12.130805,3.9911785 c 0.630999,-0.3158377 2.187848,-0.6642421 3.381043,-0.67026 1.193196,-0.00601 5.806771,0.3525389 5.770752,0.8423409 -0.03602,0.489802 -2.250872,0.4712264 -3.173379,0.9618695 -0.922507,0.4906428 -0.167406,0.9520406 -0.841905,1.3339988 -0.674497,0.3819581 -2.061457,0.07522 -2.51308,0.069223 -0.451622,-0.00599 -2.294055,-0.8846852 -2.572473,-0.8846852 -0.278419,0 -1.126518,0.549602 -1.422752,0.3280063 -0.296231,-0.2215955 0.740793,-1.6646566 1.371794,-1.9804933 z"
           id="path4406"
           sodipodi:nodetypes="zzzzzzzzz" />
        <path
           style="display:inline;fill:#ffffff;fill-opacity:1;stroke:none;stroke-width:0.561889"
           d="M 8.6418696,2.3208821 C 9.1380683,2.3256442 10.370978,2.294364 10.572154,2.4344455 10.77333,2.5745266 10.508935,3.1633522 10.362985,3.438529 10.217038,3.7137057 9.5685092,4.4649389 9.1308712,4.4592557 8.6932325,4.4536012 8.2920625,3.5637113 8.1549825,3.430355 8.017902,3.2969986 7.1896132,3.0714583 7.1821859,2.7754632 7.1747561,2.4794681 8.1456709,2.3161172 8.6418696,2.3208821 Z"
           id="path4408"
           sodipodi:nodetypes="zzzzzzz" />
        <path
           style="display:inline;fill:#4e9a06;fill-opacity:1;stroke:none;stroke-width:0.586287"
           d="m 3.9349483,2.8706753 c 0.5900149,-0.094303 2.4531189,-0.4313116 2.560567,-0.2650394 0.107448,0.1662719 0.01909,1.0817679 0.039375,1.4417139 0.00857,0.1522318 1.0720352,0.556623 0.9947445,0.9469666 C 7.4952425,5.1679989 7.0319473,5.504877 6.1595642,5.5064511 5.3645803,5.5078824 5.3561653,6.4827603 4.9998587,6.5386494 4.8348843,6.564527 4.2851134,6.1645292 3.8582286,5.5316083 3.4701318,4.9561976 3.2551567,4.314426 3.1415094,4.2042459 2.668928,3.7460784 1.2154941,4.3613403 1.1123339,3.6268272 1.0091755,2.892314 3.3449326,2.9649787 3.9349483,2.8706753 Z"
           id="path4410"
           sodipodi:nodetypes="zzsssssszz" />
        <path
           style="display:inline;fill:#4e9a06;fill-opacity:1;stroke:none;stroke-width:0.611553"
           d="M 6.7229149,6.563391 C 7.0253921,6.5749373 8.5444875,6.7224174 8.6488966,7.2067607 8.7533057,7.691104 8.0186652,7.9373148 7.7929621,8.2708418 7.567259,8.604369 6.8222123,9.5024404 6.4902815,9.5123534 6.1583508,9.5222708 6.2331621,8.0162767 6.0963566,7.8579866 5.9595511,7.6996967 5.1422382,7.7295847 5.1177584,7.0923281 5.0932736,6.455071 6.4204383,6.5518452 6.7229149,6.563391 Z"
           id="path4412"
           sodipodi:nodetypes="zzzzzzz" />
        <path
           style="display:inline;fill:#4e9a06;fill-opacity:1;stroke:none;stroke-width:0.529065"
           d="m 12.131132,7.2325658 c 0.25468,0.010264 0.528368,-0.079866 0.620592,0.1207622 0.09222,0.2006291 0.0028,0.5229613 -0.06372,0.8342382 -0.06647,0.311277 -0.112116,0.7861866 -0.47986,0.7801904 -0.367745,-0.00597 -0.574863,-1.0635548 -0.690051,-1.2042571 -0.115188,-0.140702 -0.904767,-0.1533068 -0.938411,-0.5698187 -0.03365,-0.4165116 1.296765,0.028622 1.551445,0.038885 z"
           id="path4414"
           sodipodi:nodetypes="zzzzzzz" />
      </g>
      <g
         id="group2"
         inkscape:label="group2"
         style="display:inline">
        <path
           style="display:inline;fill:#c17d11;fill-opacity:1;stroke:none;stroke-width:0.529065"
           d="m 11.375556,6.2496358 c 0.254679,0.010264 0.997347,0.00344 1.284978,0.2873607 0.287631,0.283928 0.159078,0.8894775 0.09261,1.2007544 -0.06647,0.311277 -0.199499,0.8578137 -0.567243,0.8518175 -0.367745,-0.00597 -0.463631,-0.8855839 -0.578818,-1.0262861 -0.115188,-0.140702 -1.032839,0.063569 -1.053451,-0.5028801 -0.02061,-0.56645 0.567243,-0.8210292 0.821924,-0.8107664 z"
           id="path3339"
           sodipodi:nodetypes="zzzzzzz" />
        <path
           style="display:inline;fill:#c17d11;fill-opacity:1;stroke:none;stroke-width:0.529065"
           d="m 11.375556,6.2496358 c 0.254679,0.010264 0.997347,0.00344 1.284978,0.2873607 0.287631,0.283928 0.159078,0.8894775 0.09261,1.2007544 -0.06647,0.311277 -0.199499,0.8578137 -0.567243,0.8518175 -0.367745,-0.00597 -0.463631,-0.8855839 -0.578818,-1.0262861 -0.115188,-0.140702 -1.032839,0.063569 -1.053451,-0.5028801 -0.02061,-0.56645 0.567243,-0.8210292 0.821924,-0.8107664 z"
           id="path3341"
           sodipodi:nodetypes="zzzzzzz" />
        <path
           style="display:inline;fill:#c17d11;fill-opacity:1;stroke:none;stroke-width:0.348119"
           d="m 18.234182,7.4404206 c 0.149545,0.00119 0.170752,0.2917283 0.483461,0.3045073 0.104172,0.00425 0.130879,-0.3680779 0.241299,-0.3661785 0.107686,0.00185 0.44198,0.7038541 0.399862,0.9165331 -0.04212,0.2126792 -0.204718,0.940208 -0.437747,0.936132 -0.09016,-0.00157 -0.213823,-0.473813 -0.690282,-0.5580817 -0.548499,-0.09701 -0.616126,0.5026601 -0.79511,0.3223044 -0.08613,-0.086787 -0.374822,-0.3612873 -0.264835,-0.7280765 0.109985,-0.366789 0.818073,-0.8290933 1.063352,-0.8271401 z"
           id="path3343"
           sodipodi:nodetypes="ssszssszs" />
        <path
           style="display:inline;fill:#4e9a06;fill-opacity:1;stroke:none;stroke-width:0.586305"
           d="m 12.130805,3.9911785 c 0.630999,-0.3158377 2.187848,-0.6642421 3.381043,-0.67026 1.193196,-0.00601 5.806771,0.3525389 5.770752,0.8423409 -0.03602,0.489802 -2.250872,0.4712264 -3.173379,0.9618695 -0.922507,0.4906428 -0.167406,0.9520406 -0.841905,1.3339988 -0.674497,0.3819581 -2.061457,0.07522 -2.51308,0.069223 -0.451622,-0.00599 -2.294055,-0.8846852 -2.572473,-0.8846852 -0.278419,0 -1.126518,0.549602 -1.422752,0.3280063 -0.296231,-0.2215955 0.740793,-1.6646566 1.371794,-1.9804933 z"
           id="path3345"
           sodipodi:nodetypes="zzzzzzzzz" />
        <path
           style="display:inline;fill:#ffffff;fill-opacity:1;stroke:none;stroke-width:0.561889"
           d="M 8.6418696,2.3208821 C 9.1380683,2.3256442 10.370978,2.294364 10.572154,2.4344455 10.77333,2.5745266 10.508935,3.1633522 10.362985,3.438529 10.217038,3.7137057 9.5685092,4.4649389 9.1308712,4.4592557 8.6932325,4.4536012 8.2920625,3.5637113 8.1549825,3.430355 8.017902,3.2969986 7.1896132,3.0714583 7.1821859,2.7754632 7.1747561,2.4794681 8.1456709,2.3161172 8.6418696,2.3208821 Z"
           id="path3347"
           sodipodi:nodetypes="zzzzzzz" />
        <path
           style="display:inline;fill:#4e9a06;fill-opacity:1;stroke:none;stroke-width:0.586287"
           d="m 3.9349483,2.8706753 c 0.5900149,-0.094303 2.4531189,-0.4313116 2.560567,-0.2650394 0.107448,0.1662719 0.01909,1.0817679 0.039375,1.4417139 0.00857,0.1522318 1.0720352,0.556623 0.9947445,0.9469666 C 7.4952425,5.1679989 7.0319473,5.504877 6.1595642,5.5064511 5.3645803,5.5078824 5.3561653,6.4827603 4.9998587,6.5386494 4.8348843,6.564527 4.2851134,6.1645292 3.8582286,5.5316083 3.4701318,4.9561976 3.2551567,4.314426 3.1415094,4.2042459 2.668928,3.7460784 1.2154941,4.3613403 1.1123339,3.6268272 1.0091755,2.892314 3.3449326,2.9649787 3.9349483,2.8706753 Z"
           id="path3349"
           sodipodi:nodetypes="zzsssssszz" />
        <path
           style="display:inline;fill:#4e9a06;fill-opacity:1;stroke:none;stroke-width:0.611553"
           d="M 6.7229149,6.563391 C 7.0253921,6.5749373 8.5444875,6.7224174 8.6488966,7.2067607 8.7533057,7.691104 8.0186652,7.9373148 7.7929621,8.2708418 7.567259,8.604369 6.8222123,9.5024404 6.4902815,9.5123534 6.1583508,9.5222708 6.2331621,8.0162767 6.0963566,7.8579866 5.9595511,7.6996967 5.1422382,7.7295847 5.1177584,7.0923281 5.0932736,6.455071 6.4204383,6.5518452 6.7229149,6.563391 Z"
           id="path3351"
           sodipodi:nodetypes="zzzzzzz" />
        <path
           style="display:inline;fill:#4e9a06;fill-opacity:1;stroke:none;stroke-width:0.529065"
           d="m 12.131132,7.2325658 c 0.25468,0.010264 0.528368,-0.079866 0.620592,0.1207622 0.09222,0.2006291 0.0028,0.5229613 -0.06372,0.8342382 -0.06647,0.311277 -0.112116,0.7861866 -0.47986,0.7801904 -0.367745,-0.00597 -0.574863,-1.0635548 -0.690051,-1.2042571 -0.115188,-0.140702 -0.904767,-0.1533068 -0.938411,-0.5698187 -0.03365,-0.4165116 1.296765,0.028622 1.551445,0.038885 z"
           id="path3353"
           sodipodi:nodetypes="zzzzzzz" />
      </g>
    </g>
    <path
       id="circle4517"
       clip-path="none"
       style="display:none;fill:#750200;fill-opacity:1;stroke-linecap:round"
       d="M 11.641666,6.3499999 A 5.2916665,5.2916665 0 0 1 6.3499999,11.641666 5.2916665,5.2916665 0 0 1 1.0583334,6.3499999 5.2916665,5.2916665 0 0 1 6.3499999,1.0583334 5.2916665,5.2916665 0 0 1 11.641666,6.3499999 Z"
       transform="matrix(0.95442617,0,0,0.95442616,0.04823222,0.04823223)" />
    <g
       id="g3803"
       sodipodi:insensitive="true"
       style="display:none">
      <g
         id="g3630"
         inkscape:label="group1"
         style="display:inline"
         transform="translate(11.367891,18.642452)">
        <path
           style="display:inline;fill:#c17d11;fill-opacity:1;stroke:none;stroke-width:0.529065"
           d="m 11.375556,6.2496358 c 0.254679,0.010264 0.997347,0.00344 1.284978,0.2873607 0.287631,0.283928 0.159078,0.8894775 0.09261,1.2007544 -0.06647,0.311277 -0.199499,0.8578137 -0.567243,0.8518175 -0.367745,-0.00597 -0.463631,-0.8855839 -0.578818,-1.0262861 -0.115188,-0.140702 -1.032839,0.063569 -1.053451,-0.5028801 -0.02061,-0.56645 0.567243,-0.8210292 0.821924,-0.8107664 z"
           id="path3614"
           sodipodi:nodetypes="zzzzzzz" />
        <path
           style="display:inline;fill:#c17d11;fill-opacity:1;stroke:none;stroke-width:0.529065"
           d="m 11.375556,6.2496358 c 0.254679,0.010264 0.997347,0.00344 1.284978,0.2873607 0.287631,0.283928 0.159078,0.8894775 0.09261,1.2007544 -0.06647,0.311277 -0.199499,0.8578137 -0.567243,0.8518175 -0.367745,-0.00597 -0.463631,-0.8855839 -0.578818,-1.0262861 -0.115188,-0.140702 -1.032839,0.063569 -1.053451,-0.5028801 -0.02061,-0.56645 0.567243,-0.8210292 0.821924,-0.8107664 z"
           id="path3616"
           sodipodi:nodetypes="zzzzzzz" />
        <path
           style="display:inline;fill:#c17d11;fill-opacity:1;stroke:none;stroke-width:0.348119"
           d="m 18.234182,7.4404206 c 0.149545,0.00119 0.170752,0.2917283 0.483461,0.3045073 0.104172,0.00425 0.130879,-0.3680779 0.241299,-0.3661785 0.107686,0.00185 0.44198,0.7038541 0.399862,0.9165331 -0.04212,0.2126792 -0.204718,0.940208 -0.437747,0.936132 -0.09016,-0.00157 -0.213823,-0.473813 -0.690282,-0.5580817 -0.548499,-0.09701 -0.616126,0.5026601 -0.79511,0.3223044 -0.08613,-0.086787 -0.374822,-0.3612873 -0.264835,-0.7280765 0.109985,-0.366789 0.818073,-0.8290933 1.063352,-0.8271401 z"
           id="path3618"
           sodipodi:nodetypes="ssszssszs" />
        <path
           style="display:inline;fill:#4e9a06;fill-opacity:1;stroke:none;stroke-width:0.586305"
           d="m 12.130805,3.9911785 c 0.630999,-0.3158377 2.187848,-0.6642421 3.381043,-0.67026 1.193196,-0.00601 5.806771,0.3525389 5.770752,0.8423409 -0.03602,0.489802 -2.250872,0.4712264 -3.173379,0.9618695 -0.922507,0.4906428 -0.167406,0.9520406 -0.841905,1.3339988 -0.674497,0.3819581 -2.061457,0.07522 -2.51308,0.069223 -0.451622,-0.00599 -2.294055,-0.8846852 -2.572473,-0.8846852 -0.278419,0 -1.126518,0.549602 -1.422752,0.3280063 -0.296231,-0.2215955 0.740793,-1.6646566 1.371794,-1.9804933 z"
           id="path3620"
           sodipodi:nodetypes="zzzzzzzzz" />
        <path
           style="display:inline;fill:#ffffff;fill-opacity:1;stroke:none;stroke-width:0.561889"
           d="M 8.6418696,2.3208821 C 9.1380683,2.3256442 10.370978,2.294364 10.572154,2.4344455 10.77333,2.5745266 10.508935,3.1633522 10.362985,3.438529 10.217038,3.7137057 9.5685092,4.4649389 9.1308712,4.4592557 8.6932325,4.4536012 8.2920625,3.5637113 8.1549825,3.430355 8.017902,3.2969986 7.1896132,3.0714583 7.1821859,2.7754632 7.1747561,2.4794681 8.1456709,2.3161172 8.6418696,2.3208821 Z"
           id="path3622"
           sodipodi:nodetypes="zzzzzzz" />
        <path
           style="display:inline;fill:#4e9a06;fill-opacity:1;stroke:none;stroke-width:0.586287"
           d="m 3.9349483,2.8706753 c 0.5900149,-0.094303 2.4531189,-0.4313116 2.560567,-0.2650394 0.107448,0.1662719 0.01909,1.0817679 0.039375,1.4417139 0.00857,0.1522318 1.0720352,0.556623 0.9947445,0.9469666 C 7.4952425,5.1679989 7.0319473,5.504877 6.1595642,5.5064511 5.3645803,5.5078824 5.3561653,6.4827603 4.9998587,6.5386494 4.8348843,6.564527 4.2851134,6.1645292 3.8582286,5.5316083 3.4701318,4.9561976 3.2551567,4.314426 3.1415094,4.2042459 2.668928,3.7460784 1.2154941,4.3613403 1.1123339,3.6268272 1.0091755,2.892314 3.3449326,2.9649787 3.9349483,2.8706753 Z"
           id="path3624"
           sodipodi:nodetypes="zzsssssszz" />
        <path
           style="display:inline;fill:#4e9a06;fill-opacity:1;stroke:none;stroke-width:0.611553"
           d="M 6.7229149,6.563391 C 7.0253921,6.5749373 8.5444875,6.7224174 8.6488966,7.2067607 8.7533057,7.691104 8.0186652,7.9373148 7.7929621,8.2708418 7.567259,8.604369 6.8222123,9.5024404 6.4902815,9.5123534 6.1583508,9.5222708 6.2331621,8.0162767 6.0963566,7.8579866 5.9595511,7.6996967 5.1422382,7.7295847 5.1177584,7.0923281 5.0932736,6.455071 6.4204383,6.5518452 6.7229149,6.563391 Z"
           id="path3626"
           sodipodi:nodetypes="zzzzzzz" />
        <path
           style="display:inline;fill:#4e9a06;fill-opacity:1;stroke:none;stroke-width:0.529065"
           d="m 12.131132,7.2325658 c 0.25468,0.010264 0.528368,-0.079866 0.620592,0.1207622 0.09222,0.2006291 0.0028,0.5229613 -0.06372,0.8342382 -0.06647,0.311277 -0.112116,0.7861866 -0.47986,0.7801904 -0.367745,-0.00597 -0.574863,-1.0635548 -0.690051,-1.2042571 -0.115188,-0.140702 -0.904767,-0.1533068 -0.938411,-0.5698187 -0.03365,-0.4165116 1.296765,0.028622 1.551445,0.038885 z"
           id="path3628"
           sodipodi:nodetypes="zzzzzzz" />
      </g>
      <g
         id="g3648"
         inkscape:label="group1"
         style="display:inline"
         transform="translate(-21.512233,27.852445)">
        <path
           style="display:inline;fill:#c17d11;fill-opacity:1;stroke:none;stroke-width:0.529065"
           d="m 11.375556,6.2496358 c 0.254679,0.010264 0.997347,0.00344 1.284978,0.2873607 0.287631,0.283928 0.159078,0.8894775 0.09261,1.2007544 -0.06647,0.311277 -0.199499,0.8578137 -0.567243,0.8518175 -0.367745,-0.00597 -0.463631,-0.8855839 -0.578818,-1.0262861 -0.115188,-0.140702 -1.032839,0.063569 -1.053451,-0.5028801 -0.02061,-0.56645 0.567243,-0.8210292 0.821924,-0.8107664 z"
           id="path3632"
           sodipodi:nodetypes="zzzzzzz" />
        <path
           style="display:inline;fill:#c17d11;fill-opacity:1;stroke:none;stroke-width:0.529065"
           d="m 11.375556,6.2496358 c 0.254679,0.010264 0.997347,0.00344 1.284978,0.2873607 0.287631,0.283928 0.159078,0.8894775 0.09261,1.2007544 -0.06647,0.311277 -0.199499,0.8578137 -0.567243,0.8518175 -0.367745,-0.00597 -0.463631,-0.8855839 -0.578818,-1.0262861 -0.115188,-0.140702 -1.032839,0.063569 -1.053451,-0.5028801 -0.02061,-0.56645 0.567243,-0.8210292 0.821924,-0.8107664 z"
           id="path3634"
           sodipodi:nodetypes="zzzzzzz" />
        <path
           style="display:inline;fill:#c17d11;fill-opacity:1;stroke:none;stroke-width:0.348119"
           d="m 18.234182,7.4404206 c 0.149545,0.00119 0.170752,0.2917283 0.483461,0.3045073 0.104172,0.00425 0.130879,-0.3680779 0.241299,-0.3661785 0.107686,0.00185 0.44198,0.7038541 0.399862,0.9165331 -0.04212,0.2126792 -0.204718,0.940208 -0.437747,0.936132 -0.09016,-0.00157 -0.213823,-0.473813 -0.690282,-0.5580817 -0.548499,-0.09701 -0.616126,0.5026601 -0.79511,0.3223044 -0.08613,-0.086787 -0.374822,-0.3612873 -0.264835,-0.7280765 0.109985,-0.366789 0.818073,-0.8290933 1.063352,-0.8271401 z"
           id="path3636"
           sodipodi:nodetypes="ssszssszs" />
        <path
           style="display:inline;fill:#4e9a06;fill-opacity:1;stroke:none;stroke-width:0.586305"
           d="m 12.130805,3.9911785 c 0.630999,-0.3158377 2.187848,-0.6642421 3.381043,-0.67026 1.193196,-0.00601 5.806771,0.3525389 5.770752,0.8423409 -0.03602,0.489802 -2.250872,0.4712264 -3.173379,0.9618695 -0.922507,0.4906428 -0.167406,0.9520406 -0.841905,1.3339988 -0.674497,0.3819581 -2.061457,0.07522 -2.51308,0.069223 -0.451622,-0.00599 -2.294055,-0.8846852 -2.572473,-0.8846852 -0.278419,0 -1.126518,0.549602 -1.422752,0.3280063 -0.296231,-0.2215955 0.740793,-1.6646566 1.371794,-1.9804933 z"
           id="path3638"
           sodipodi:nodetypes="zzzzzzzzz" />
        <path
           style="display:inline;fill:#ffffff;fill-opacity:1;stroke:none;stroke-width:0.561889"
           d="M 8.6418696,2.3208821 C 9.1380683,2.3256442 10.370978,2.294364 10.572154,2.4344455 10.77333,2.5745266 10.508935,3.1633522 10.362985,3.438529 10.217038,3.7137057 9.5685092,4.4649389 9.1308712,4.4592557 8.6932325,4.4536012 8.2920625,3.5637113 8.1549825,3.430355 8.017902,3.2969986 7.1896132,3.0714583 7.1821859,2.7754632 7.1747561,2.4794681 8.1456709,2.3161172 8.6418696,2.3208821 Z"
           id="path3640"
           sodipodi:nodetypes="zzzzzzz" />
        <path
           style="display:inline;fill:#4e9a06;fill-opacity:1;stroke:none;stroke-width:0.586287"
           d="m 3.9349483,2.8706753 c 0.5900149,-0.094303 2.4531189,-0.4313116 2.560567,-0.2650394 0.107448,0.1662719 0.01909,1.0817679 0.039375,1.4417139 0.00857,0.1522318 1.0720352,0.556623 0.9947445,0.9469666 C 7.4952425,5.1679989 7.0319473,5.504877 6.1595642,5.5064511 5.3645803,5.5078824 5.3561653,6.4827603 4.9998587,6.5386494 4.8348843,6.564527 4.2851134,6.1645292 3.8582286,5.5316083 3.4701318,4.9561976 3.2551567,4.314426 3.1415094,4.2042459 2.668928,3.7460784 1.2154941,4.3613403 1.1123339,3.6268272 1.0091755,2.892314 3.3449326,2.9649787 3.9349483,2.8706753 Z"
           id="path3642"
           sodipodi:nodetypes="zzsssssszz" />
        <path
           style="display:inline;fill:#4e9a06;fill-opacity:1;stroke:none;stroke-width:0.611553"
           d="M 6.7229149,6.563391 C 7.0253921,6.5749373 8.5444875,6.7224174 8.6488966,7.2067607 8.7533057,7.691104 8.0186652,7.9373148 7.7929621,8.2708418 7.567259,8.604369 6.8222123,9.5024404 6.4902815,9.5123534 6.1583508,9.5222708 6.2331621,8.0162767 6.0963566,7.8579866 5.9595511,7.6996967 5.1422382,7.7295847 5.1177584,7.0923281 5.0932736,6.455071 6.4204383,6.5518452 6.7229149,6.563391 Z"
           id="path3644"
           sodipodi:nodetypes="zzzzzzz" />
        <path
           style="display:inline;fill:#4e9a06;fill-opacity:1;stroke:none;stroke-width:0.529065"
           d="m 12.131132,7.2325658 c 0.25468,0.010264 0.528368,-0.079866 0.620592,0.1207622 0.09222,0.2006291 0.0028,0.5229613 -0.06372,0.8342382 -0.06647,0.311277 -0.112116,0.7861866 -0.47986,0.7801904 -0.367745,-0.00597 -0.574863,-1.0635548 -0.690051,-1.2042571 -0.115188,-0.140702 -0.904767,-0.1533068 -0.938411,-0.5698187 -0.03365,-0.4165116 1.296765,0.028622 1.551445,0.038885 z"
           id="path3646"
           sodipodi:nodetypes="zzzzzzz" />
      </g>
      <g
         id="g3666"
         inkscape:label="group1"
         style="display:inline"
         transform="translate(-11.056442,37.818816)">
        <path
           style="display:inline;fill:#c17d11;fill-opacity:1;stroke:none;stroke-width:0.529065"
           d="m 11.375556,6.2496358 c 0.254679,0.010264 0.997347,0.00344 1.284978,0.2873607 0.287631,0.283928 0.159078,0.8894775 0.09261,1.2007544 -0.06647,0.311277 -0.199499,0.8578137 -0.567243,0.8518175 -0.367745,-0.00597 -0.463631,-0.8855839 -0.578818,-1.0262861 -0.115188,-0.140702 -1.032839,0.063569 -1.053451,-0.5028801 -0.02061,-0.56645 0.567243,-0.8210292 0.821924,-0.8107664 z"
           id="path3650"
           sodipodi:nodetypes="zzzzzzz" />
        <path
           style="display:inline;fill:#c17d11;fill-opacity:1;stroke:none;stroke-width:0.529065"
           d="m 11.375556,6.2496358 c 0.254679,0.010264 0.997347,0.00344 1.284978,0.2873607 0.287631,0.283928 0.159078,0.8894775 0.09261,1.2007544 -0.06647,0.311277 -0.199499,0.8578137 -0.567243,0.8518175 -0.367745,-0.00597 -0.463631,-0.8855839 -0.578818,-1.0262861 -0.115188,-0.140702 -1.032839,0.063569 -1.053451,-0.5028801 -0.02061,-0.56645 0.567243,-0.8210292 0.821924,-0.8107664 z"
           id="path3652"
           sodipodi:nodetypes="zzzzzzz" />
        <path
           style="display:inline;fill:#c17d11;fill-opacity:1;stroke:none;stroke-width:0.348119"
           d="m 18.234182,7.4404206 c 0.149545,0.00119 0.170752,0.2917283 0.483461,0.3045073 0.104172,0.00425 0.130879,-0.3680779 0.241299,-0.3661785 0.107686,0.00185 0.44198,0.7038541 0.399862,0.9165331 -0.04212,0.2126792 -0.204718,0.940208 -0.437747,0.936132 -0.09016,-0.00157 -0.213823,-0.473813 -0.690282,-0.5580817 -0.548499,-0.09701 -0.616126,0.5026601 -0.79511,0.3223044 -0.08613,-0.086787 -0.374822,-0.3612873 -0.264835,-0.7280765 0.109985,-0.366789 0.818073,-0.8290933 1.063352,-0.8271401 z"
           id="path3654"
           sodipodi:nodetypes="ssszssszs" />
        <path
           style="display:inline;fill:#4e9a06;fill-opacity:1;stroke:none;stroke-width:0.586305"
           d="m 12.130805,3.9911785 c 0.630999,-0.3158377 2.187848,-0.6642421 3.381043,-0.67026 1.193196,-0.00601 5.806771,0.3525389 5.770752,0.8423409 -0.03602,0.489802 -2.250872,0.4712264 -3.173379,0.9618695 -0.922507,0.4906428 -0.167406,0.9520406 -0.841905,1.3339988 -0.674497,0.3819581 -2.061457,0.07522 -2.51308,0.069223 -0.451622,-0.00599 -2.294055,-0.8846852 -2.572473,-0.8846852 -0.278419,0 -1.126518,0.549602 -1.422752,0.3280063 -0.296231,-0.2215955 0.740793,-1.6646566 1.371794,-1.9804933 z"
           id="path3656"
           sodipodi:nodetypes="zzzzzzzzz" />
        <path
           style="display:inline;fill:#ffffff;fill-opacity:1;stroke:none;stroke-width:0.561889"
           d="M 8.6418696,2.3208821 C 9.1380683,2.3256442 10.370978,2.294364 10.572154,2.4344455 10.77333,2.5745266 10.508935,3.1633522 10.362985,3.438529 10.217038,3.7137057 9.5685092,4.4649389 9.1308712,4.4592557 8.6932325,4.4536012 8.2920625,3.5637113 8.1549825,3.430355 8.017902,3.2969986 7.1896132,3.0714583 7.1821859,2.7754632 7.1747561,2.4794681 8.1456709,2.3161172 8.6418696,2.3208821 Z"
           id="path3658"
           sodipodi:nodetypes="zzzzzzz" />
        <path
           style="display:inline;fill:#4e9a06;fill-opacity:1;stroke:none;stroke-width:0.586287"
           d="m 3.9349483,2.8706753 c 0.5900149,-0.094303 2.4531189,-0.4313116 2.560567,-0.2650394 0.107448,0.1662719 0.01909,1.0817679 0.039375,1.4417139 0.00857,0.1522318 1.0720352,0.556623 0.9947445,0.9469666 C 7.4952425,5.1679989 7.0319473,5.504877 6.1595642,5.5064511 5.3645803,5.5078824 5.3561653,6.4827603 4.9998587,6.5386494 4.8348843,6.564527 4.2851134,6.1645292 3.8582286,5.5316083 3.4701318,4.9561976 3.2551567,4.314426 3.1415094,4.2042459 2.668928,3.7460784 1.2154941,4.3613403 1.1123339,3.6268272 1.0091755,2.892314 3.3449326,2.9649787 3.9349483,2.8706753 Z"
           id="path3660"
           sodipodi:nodetypes="zzsssssszz" />
        <path
           style="display:inline;fill:#4e9a06;fill-opacity:1;stroke:none;stroke-width:0.611553"
           d="M 6.7229149,6.563391 C 7.0253921,6.5749373 8.5444875,6.7224174 8.6488966,7.2067607 8.7533057,7.691104 8.0186652,7.9373148 7.7929621,8.2708418 7.567259,8.604369 6.8222123,9.5024404 6.4902815,9.5123534 6.1583508,9.5222708 6.2331621,8.0162767 6.0963566,7.8579866 5.9595511,7.6996967 5.1422382,7.7295847 5.1177584,7.0923281 5.0932736,6.455071 6.4204383,6.5518452 6.7229149,6.563391 Z"
           id="path3662"
           sodipodi:nodetypes="zzzzzzz" />
        <path
           style="display:inline;fill:#4e9a06;fill-opacity:1;stroke:none;stroke-width:0.529065"
           d="m 12.131132,7.2325658 c 0.25468,0.010264 0.528368,-0.079866 0.620592,0.1207622 0.09222,0.2006291 0.0028,0.5229613 -0.06372,0.8342382 -0.06647,0.311277 -0.112116,0.7861866 -0.47986,0.7801904 -0.367745,-0.00597 -0.574863,-1.0635548 -0.690051,-1.2042571 -0.115188,-0.140702 -0.904767,-0.1533068 -0.938411,-0.5698187 -0.03365,-0.4165116 1.296765,0.028622 1.551445,0.038885 z"
           id="path3664"
           sodipodi:nodetypes="zzzzzzz" />
      </g>
      <g
         id="g3684"
         inkscape:label="group1"
         style="display:inline"
         transform="translate(-21.601218,9.8328921)">
        <path
           style="display:inline;fill:#c17d11;fill-opacity:1;stroke:none;stroke-width:0.529065"
           d="m 11.375556,6.2496358 c 0.254679,0.010264 0.997347,0.00344 1.284978,0.2873607 0.287631,0.283928 0.159078,0.8894775 0.09261,1.2007544 -0.06647,0.311277 -0.199499,0.8578137 -0.567243,0.8518175 -0.367745,-0.00597 -0.463631,-0.8855839 -0.578818,-1.0262861 -0.115188,-0.140702 -1.032839,0.063569 -1.053451,-0.5028801 -0.02061,-0.56645 0.567243,-0.8210292 0.821924,-0.8107664 z"
           id="path3668"
           sodipodi:nodetypes="zzzzzzz" />
        <path
           style="display:inline;fill:#c17d11;fill-opacity:1;stroke:none;stroke-width:0.529065"
           d="m 11.375556,6.2496358 c 0.254679,0.010264 0.997347,0.00344 1.284978,0.2873607 0.287631,0.283928 0.159078,0.8894775 0.09261,1.2007544 -0.06647,0.311277 -0.199499,0.8578137 -0.567243,0.8518175 -0.367745,-0.00597 -0.463631,-0.8855839 -0.578818,-1.0262861 -0.115188,-0.140702 -1.032839,0.063569 -1.053451,-0.5028801 -0.02061,-0.56645 0.567243,-0.8210292 0.821924,-0.8107664 z"
           id="path3670"
           sodipodi:nodetypes="zzzzzzz" />
        <path
           style="display:inline;fill:#c17d11;fill-opacity:1;stroke:none;stroke-width:0.348119"
           d="m 18.234182,7.4404206 c 0.149545,0.00119 0.170752,0.2917283 0.483461,0.3045073 0.104172,0.00425 0.130879,-0.3680779 0.241299,-0.3661785 0.107686,0.00185 0.44198,0.7038541 0.399862,0.9165331 -0.04212,0.2126792 -0.204718,0.940208 -0.437747,0.936132 -0.09016,-0.00157 -0.213823,-0.473813 -0.690282,-0.5580817 -0.548499,-0.09701 -0.616126,0.5026601 -0.79511,0.3223044 -0.08613,-0.086787 -0.374822,-0.3612873 -0.264835,-0.7280765 0.109985,-0.366789 0.818073,-0.8290933 1.063352,-0.8271401 z"
           id="path3672"
           sodipodi:nodetypes="ssszssszs" />
        <path
           style="display:inline;fill:#4e9a06;fill-opacity:1;stroke:none;stroke-width:0.586305"
           d="m 12.130805,3.9911785 c 0.630999,-0.3158377 2.187848,-0.6642421 3.381043,-0.67026 1.193196,-0.00601 5.806771,0.3525389 5.770752,0.8423409 -0.03602,0.489802 -2.250872,0.4712264 -3.173379,0.9618695 -0.922507,0.4906428 -0.167406,0.9520406 -0.841905,1.3339988 -0.674497,0.3819581 -2.061457,0.07522 -2.51308,0.069223 -0.451622,-0.00599 -2.294055,-0.8846852 -2.572473,-0.8846852 -0.278419,0 -1.126518,0.549602 -1.422752,0.3280063 -0.296231,-0.2215955 0.740793,-1.6646566 1.371794,-1.9804933 z"
           id="path3674"
           sodipodi:nodetypes="zzzzzzzzz" />
        <path
           style="display:inline;fill:#ffffff;fill-opacity:1;stroke:none;stroke-width:0.561889"
           d="M 8.6418696,2.3208821 C 9.1380683,2.3256442 10.370978,2.294364 10.572154,2.4344455 10.77333,2.5745266 10.508935,3.1633522 10.362985,3.438529 10.217038,3.7137057 9.5685092,4.4649389 9.1308712,4.4592557 8.6932325,4.4536012 8.2920625,3.5637113 8.1549825,3.430355 8.017902,3.2969986 7.1896132,3.0714583 7.1821859,2.7754632 7.1747561,2.4794681 8.1456709,2.3161172 8.6418696,2.3208821 Z"
           id="path3676"
           sodipodi:nodetypes="zzzzzzz" />
        <path
           style="display:inline;fill:#4e9a06;fill-opacity:1;stroke:none;stroke-width:0.586287"
           d="m 3.9349483,2.8706753 c 0.5900149,-0.094303 2.4531189,-0.4313116 2.560567,-0.2650394 0.107448,0.1662719 0.01909,1.0817679 0.039375,1.4417139 0.00857,0.1522318 1.0720352,0.556623 0.9947445,0.9469666 C 7.4952425,5.1679989 7.0319473,5.504877 6.1595642,5.5064511 5.3645803,5.5078824 5.3561653,6.4827603 4.9998587,6.5386494 4.8348843,6.564527 4.2851134,6.1645292 3.8582286,5.5316083 3.4701318,4.9561976 3.2551567,4.314426 3.1415094,4.2042459 2.668928,3.7460784 1.2154941,4.3613403 1.1123339,3.6268272 1.0091755,2.892314 3.3449326,2.9649787 3.9349483,2.8706753 Z"
           id="path3678"
           sodipodi:nodetypes="zzsssssszz" />
        <path
           style="display:inline;fill:#4e9a06;fill-opacity:1;stroke:none;stroke-width:0.611553"
           d="M 6.7229149,6.563391 C 7.0253921,6.5749373 8.5444875,6.7224174 8.6488966,7.2067607 8.7533057,7.691104 8.0186652,7.9373148 7.7929621,8.2708418 7.567259,8.604369 6.8222123,9.5024404 6.4902815,9.5123534 6.1583508,9.5222708 6.2331621,8.0162767 6.0963566,7.8579866 5.9595511,7.6996967 5.1422382,7.7295847 5.1177584,7.0923281 5.0932736,6.455071 6.4204383,6.5518452 6.7229149,6.563391 Z"
           id="path3680"
           sodipodi:nodetypes="zzzzzzz" />
        <path
           style="display:inline;fill:#4e9a06;fill-opacity:1;stroke:none;stroke-width:0.529065"
           d="m 12.131132,7.2325658 c 0.25468,0.010264 0.528368,-0.079866 0.620592,0.1207622 0.09222,0.2006291 0.0028,0.5229613 -0.06372,0.8342382 -0.06647,0.311277 -0.112116,0.7861866 -0.47986,0.7801904 -0.367745,-0.00597 -0.574863,-1.0635548 -0.690051,-1.2042571 -0.115188,-0.140702 -0.904767,-0.1533068 -0.938411,-0.5698187 -0.03365,-0.4165116 1.296765,0.028622 1.551445,0.038885 z"
           id="path3682"
           sodipodi:nodetypes="zzzzzzz" />
      </g>
      <g
         id="g3702"
         inkscape:label="group1"
         style="display:inline"
         transform="translate(-11.01195,18.909408)">
        <path
           style="display:inline;fill:#c17d11;fill-opacity:1;stroke:none;stroke-width:0.529065"
           d="m 11.375556,6.2496358 c 0.254679,0.010264 0.997347,0.00344 1.284978,0.2873607 0.287631,0.283928 0.159078,0.8894775 0.09261,1.2007544 -0.06647,0.311277 -0.199499,0.8578137 -0.567243,0.8518175 -0.367745,-0.00597 -0.463631,-0.8855839 -0.578818,-1.0262861 -0.115188,-0.140702 -1.032839,0.063569 -1.053451,-0.5028801 -0.02061,-0.56645 0.567243,-0.8210292 0.821924,-0.8107664 z"
           id="path3686"
           sodipodi:nodetypes="zzzzzzz" />
        <path
           style="display:inline;fill:#c17d11;fill-opacity:1;stroke:none;stroke-width:0.529065"
           d="m 11.375556,6.2496358 c 0.254679,0.010264 0.997347,0.00344 1.284978,0.2873607 0.287631,0.283928 0.159078,0.8894775 0.09261,1.2007544 -0.06647,0.311277 -0.199499,0.8578137 -0.567243,0.8518175 -0.367745,-0.00597 -0.463631,-0.8855839 -0.578818,-1.0262861 -0.115188,-0.140702 -1.032839,0.063569 -1.053451,-0.5028801 -0.02061,-0.56645 0.567243,-0.8210292 0.821924,-0.8107664 z"
           id="path3688"
           sodipodi:nodetypes="zzzzzzz" />
        <path
           style="display:inline;fill:#c17d11;fill-opacity:1;stroke:none;stroke-width:0.348119"
           d="m 18.234182,7.4404206 c 0.149545,0.00119 0.170752,0.2917283 0.483461,0.3045073 0.104172,0.00425 0.130879,-0.3680779 0.241299,-0.3661785 0.107686,0.00185 0.44198,0.7038541 0.399862,0.9165331 -0.04212,0.2126792 -0.204718,0.940208 -0.437747,0.936132 -0.09016,-0.00157 -0.213823,-0.473813 -0.690282,-0.5580817 -0.548499,-0.09701 -0.616126,0.5026601 -0.79511,0.3223044 -0.08613,-0.086787 -0.374822,-0.3612873 -0.264835,-0.7280765 0.109985,-0.366789 0.818073,-0.8290933 1.063352,-0.8271401 z"
           id="path3690"
           sodipodi:nodetypes="ssszssszs" />
        <path
           style="display:inline;fill:#4e9a06;fill-opacity:1;stroke:none;stroke-width:0.586305"
           d="m 12.130805,3.9911785 c 0.630999,-0.3158377 2.187848,-0.6642421 3.381043,-0.67026 1.193196,-0.00601 5.806771,0.3525389 5.770752,0.8423409 -0.03602,0.489802 -2.250872,0.4712264 -3.173379,0.9618695 -0.922507,0.4906428 -0.167406,0.9520406 -0.841905,1.3339988 -0.674497,0.3819581 -2.061457,0.07522 -2.51308,0.069223 -0.451622,-0.00599 -2.294055,-0.8846852 -2.572473,-0.8846852 -0.278419,0 -1.126518,0.549602 -1.422752,0.3280063 -0.296231,-0.2215955 0.740793,-1.6646566 1.371794,-1.9804933 z"
           id="path3692"
           sodipodi:nodetypes="zzzzzzzzz" />
        <path
           style="display:inline;fill:#ffffff;fill-opacity:1;stroke:none;stroke-width:0.561889"
           d="M 8.6418696,2.3208821 C 9.1380683,2.3256442 10.370978,2.294364 10.572154,2.4344455 10.77333,2.5745266 10.508935,3.1633522 10.362985,3.438529 10.217038,3.7137057 9.5685092,4.4649389 9.1308712,4.4592557 8.6932325,4.4536012 8.2920625,3.5637113 8.1549825,3.430355 8.017902,3.2969986 7.1896132,3.0714583 7.1821859,2.7754632 7.1747561,2.4794681 8.1456709,2.3161172 8.6418696,2.3208821 Z"
           id="path3694"
           sodipodi:nodetypes="zzzzzzz" />
        <path
           style="display:inline;fill:#4e9a06;fill-opacity:1;stroke:none;stroke-width:0.586287"
           d="m 3.9349483,2.8706753 c 0.5900149,-0.094303 2.4531189,-0.4313116 2.560567,-0.2650394 0.107448,0.1662719 0.01909,1.0817679 0.039375,1.4417139 0.00857,0.1522318 1.0720352,0.556623 0.9947445,0.9469666 C 7.4952425,5.1679989 7.0319473,5.504877 6.1595642,5.5064511 5.3645803,5.5078824 5.3561653,6.4827603 4.9998587,6.5386494 4.8348843,6.564527 4.2851134,6.1645292 3.8582286,5.5316083 3.4701318,4.9561976 3.2551567,4.314426 3.1415094,4.2042459 2.668928,3.7460784 1.2154941,4.3613403 1.1123339,3.6268272 1.0091755,2.892314 3.3449326,2.9649787 3.9349483,2.8706753 Z"
           id="path3696"
           sodipodi:nodetypes="zzsssssszz" />
        <path
           style="display:inline;fill:#4e9a06;fill-opacity:1;stroke:none;stroke-width:0.611553"
           d="M 6.7229149,6.563391 C 7.0253921,6.5749373 8.5444875,6.7224174 8.6488966,7.2067607 8.7533057,7.691104 8.0186652,7.9373148 7.7929621,8.2708418 7.567259,8.604369 6.8222123,9.5024404 6.4902815,9.5123534 6.1583508,9.5222708 6.2331621,8.0162767 6.0963566,7.8579866 5.9595511,7.6996967 5.1422382,7.7295847 5.1177584,7.0923281 5.0932736,6.455071 6.4204383,6.5518452 6.7229149,6.563391 Z"
           id="path3698"
           sodipodi:nodetypes="zzzzzzz" />
        <path
           style="display:inline;fill:#4e9a06;fill-opacity:1;stroke:none;stroke-width:0.529065"
           d="m 12.131132,7.2325658 c 0.25468,0.010264 0.528368,-0.079866 0.620592,0.1207622 0.09222,0.2006291 0.0028,0.5229613 -0.06372,0.8342382 -0.06647,0.311277 -0.112116,0.7861866 -0.47986,0.7801904 -0.367745,-0.00597 -0.574863,-1.0635548 -0.690051,-1.2042571 -0.115188,-0.140702 -0.904767,-0.1533068 -0.938411,-0.5698187 -0.03365,-0.4165116 1.296765,0.028622 1.551445,0.038885 z"
           id="path3700"
           sodipodi:nodetypes="zzzzzzz" />
      </g>
      <g
         id="g3720"
         inkscape:label="group1"
         style="display:inline"
         transform="translate(0.91209965,28.163895)">
        <path
           style="display:inline;fill:#c17d11;fill-opacity:1;stroke:none;stroke-width:0.529065"
           d="m 11.375556,6.2496358 c 0.254679,0.010264 0.997347,0.00344 1.284978,0.2873607 0.287631,0.283928 0.159078,0.8894775 0.09261,1.2007544 -0.06647,0.311277 -0.199499,0.8578137 -0.567243,0.8518175 -0.367745,-0.00597 -0.463631,-0.8855839 -0.578818,-1.0262861 -0.115188,-0.140702 -1.032839,0.063569 -1.053451,-0.5028801 -0.02061,-0.56645 0.567243,-0.8210292 0.821924,-0.8107664 z"
           id="path3704"
           sodipodi:nodetypes="zzzzzzz" />
        <path
           style="display:inline;fill:#c17d11;fill-opacity:1;stroke:none;stroke-width:0.529065"
           d="m 11.375556,6.2496358 c 0.254679,0.010264 0.997347,0.00344 1.284978,0.2873607 0.287631,0.283928 0.159078,0.8894775 0.09261,1.2007544 -0.06647,0.311277 -0.199499,0.8578137 -0.567243,0.8518175 -0.367745,-0.00597 -0.463631,-0.8855839 -0.578818,-1.0262861 -0.115188,-0.140702 -1.032839,0.063569 -1.053451,-0.5028801 -0.02061,-0.56645 0.567243,-0.8210292 0.821924,-0.8107664 z"
           id="path3706"
           sodipodi:nodetypes="zzzzzzz" />
        <path
           style="display:inline;fill:#c17d11;fill-opacity:1;stroke:none;stroke-width:0.348119"
           d="m 18.234182,7.4404206 c 0.149545,0.00119 0.170752,0.2917283 0.483461,0.3045073 0.104172,0.00425 0.130879,-0.3680779 0.241299,-0.3661785 0.107686,0.00185 0.44198,0.7038541 0.399862,0.9165331 -0.04212,0.2126792 -0.204718,0.940208 -0.437747,0.936132 -0.09016,-0.00157 -0.213823,-0.473813 -0.690282,-0.5580817 -0.548499,-0.09701 -0.616126,0.5026601 -0.79511,0.3223044 -0.08613,-0.086787 -0.374822,-0.3612873 -0.264835,-0.7280765 0.109985,-0.366789 0.818073,-0.8290933 1.063352,-0.8271401 z"
           id="path3708"
           sodipodi:nodetypes="ssszssszs" />
        <path
           style="display:inline;fill:#4e9a06;fill-opacity:1;stroke:none;stroke-width:0.586305"
           d="m 12.130805,3.9911785 c 0.630999,-0.3158377 2.187848,-0.6642421 3.381043,-0.67026 1.193196,-0.00601 5.806771,0.3525389 5.770752,0.8423409 -0.03602,0.489802 -2.250872,0.4712264 -3.173379,0.9618695 -0.922507,0.4906428 -0.167406,0.9520406 -0.841905,1.3339988 -0.674497,0.3819581 -2.061457,0.07522 -2.51308,0.069223 -0.451622,-0.00599 -2.294055,-0.8846852 -2.572473,-0.8846852 -0.278419,0 -1.126518,0.549602 -1.422752,0.3280063 -0.296231,-0.2215955 0.740793,-1.6646566 1.371794,-1.9804933 z"
           id="path3710"
           sodipodi:nodetypes="zzzzzzzzz" />
        <path
           style="display:inline;fill:#ffffff;fill-opacity:1;stroke:none;stroke-width:0.561889"
           d="M 8.6418696,2.3208821 C 9.1380683,2.3256442 10.370978,2.294364 10.572154,2.4344455 10.77333,2.5745266 10.508935,3.1633522 10.362985,3.438529 10.217038,3.7137057 9.5685092,4.4649389 9.1308712,4.4592557 8.6932325,4.4536012 8.2920625,3.5637113 8.1549825,3.430355 8.017902,3.2969986 7.1896132,3.0714583 7.1821859,2.7754632 7.1747561,2.4794681 8.1456709,2.3161172 8.6418696,2.3208821 Z"
           id="path3712"
           sodipodi:nodetypes="zzzzzzz" />
        <path
           style="display:inline;fill:#4e9a06;fill-opacity:1;stroke:none;stroke-width:0.586287"
           d="m 3.9349483,2.8706753 c 0.5900149,-0.094303 2.4531189,-0.4313116 2.560567,-0.2650394 0.107448,0.1662719 0.01909,1.0817679 0.039375,1.4417139 0.00857,0.1522318 1.0720352,0.556623 0.9947445,0.9469666 C 7.4952425,5.1679989 7.0319473,5.504877 6.1595642,5.5064511 5.3645803,5.5078824 5.3561653,6.4827603 4.9998587,6.5386494 4.8348843,6.564527 4.2851134,6.1645292 3.8582286,5.5316083 3.4701318,4.9561976 3.2551567,4.314426 3.1415094,4.2042459 2.668928,3.7460784 1.2154941,4.3613403 1.1123339,3.6268272 1.0091755,2.892314 3.3449326,2.9649787 3.9349483,2.8706753 Z"
           id="path3714"
           sodipodi:nodetypes="zzsssssszz" />
        <path
           style="display:inline;fill:#4e9a06;fill-opacity:1;stroke:none;stroke-width:0.611553"
           d="M 6.7229149,6.563391 C 7.0253921,6.5749373 8.5444875,6.7224174 8.6488966,7.2067607 8.7533057,7.691104 8.0186652,7.9373148 7.7929621,8.2708418 7.567259,8.604369 6.8222123,9.5024404 6.4902815,9.5123534 6.1583508,9.5222708 6.2331621,8.0162767 6.0963566,7.8579866 5.9595511,7.6996967 5.1422382,7.7295847 5.1177584,7.0923281 5.0932736,6.455071 6.4204383,6.5518452 6.7229149,6.563391 Z"
           id="path3716"
           sodipodi:nodetypes="zzzzzzz" />
        <path
           style="display:inline;fill:#4e9a06;fill-opacity:1;stroke:none;stroke-width:0.529065"
           d="m 12.131132,7.2325658 c 0.25468,0.010264 0.528368,-0.079866 0.620592,0.1207622 0.09222,0.2006291 0.0028,0.5229613 -0.06372,0.8342382 -0.06647,0.311277 -0.112116,0.7861866 -0.47986,0.7801904 -0.367745,-0.00597 -0.574863,-1.0635548 -0.690051,-1.2042571 -0.115188,-0.140702 -0.904767,-0.1533068 -0.938411,-0.5698187 -0.03365,-0.4165116 1.296765,0.028622 1.551445,0.038885 z"
           id="path3718"
           sodipodi:nodetypes="zzzzzzz" />
      </g>
      <g
         id="g3738"
         inkscape:label="group1"
         style="display:inline"
         transform="translate(12.391222,37.863309)">
        <path
           style="display:inline;fill:#c17d11;fill-opacity:1;stroke:none;stroke-width:0.529065"
           d="m 11.375556,6.2496358 c 0.254679,0.010264 0.997347,0.00344 1.284978,0.2873607 0.287631,0.283928 0.159078,0.8894775 0.09261,1.2007544 -0.06647,0.311277 -0.199499,0.8578137 -0.567243,0.8518175 -0.367745,-0.00597 -0.463631,-0.8855839 -0.578818,-1.0262861 -0.115188,-0.140702 -1.032839,0.063569 -1.053451,-0.5028801 -0.02061,-0.56645 0.567243,-0.8210292 0.821924,-0.8107664 z"
           id="path3722"
           sodipodi:nodetypes="zzzzzzz" />
        <path
           style="display:inline;fill:#c17d11;fill-opacity:1;stroke:none;stroke-width:0.529065"
           d="m 11.375556,6.2496358 c 0.254679,0.010264 0.997347,0.00344 1.284978,0.2873607 0.287631,0.283928 0.159078,0.8894775 0.09261,1.2007544 -0.06647,0.311277 -0.199499,0.8578137 -0.567243,0.8518175 -0.367745,-0.00597 -0.463631,-0.8855839 -0.578818,-1.0262861 -0.115188,-0.140702 -1.032839,0.063569 -1.053451,-0.5028801 -0.02061,-0.56645 0.567243,-0.8210292 0.821924,-0.8107664 z"
           id="path3724"
           sodipodi:nodetypes="zzzzzzz" />
        <path
           style="display:inline;fill:#c17d11;fill-opacity:1;stroke:none;stroke-width:0.348119"
           d="m 18.234182,7.4404206 c 0.149545,0.00119 0.170752,0.2917283 0.483461,0.3045073 0.104172,0.00425 0.130879,-0.3680779 0.241299,-0.3661785 0.107686,0.00185 0.44198,0.7038541 0.399862,0.9165331 -0.04212,0.2126792 -0.204718,0.940208 -0.437747,0.936132 -0.09016,-0.00157 -0.213823,-0.473813 -0.690282,-0.5580817 -0.548499,-0.09701 -0.616126,0.5026601 -0.79511,0.3223044 -0.08613,-0.086787 -0.374822,-0.3612873 -0.264835,-0.7280765 0.109985,-0.366789 0.818073,-0.8290933 1.063352,-0.8271401 z"
           id="path3726"
           sodipodi:nodetypes="ssszssszs" />
        <path
           style="display:inline;fill:#4e9a06;fill-opacity:1;stroke:none;stroke-width:0.586305"
           d="m 12.130805,3.9911785 c 0.630999,-0.3158377 2.187848,-0.6642421 3.381043,-0.67026 1.193196,-0.00601 5.806771,0.3525389 5.770752,0.8423409 -0.03602,0.489802 -2.250872,0.4712264 -3.173379,0.9618695 -0.922507,0.4906428 -0.167406,0.9520406 -0.841905,1.3339988 -0.674497,0.3819581 -2.061457,0.07522 -2.51308,0.069223 -0.451622,-0.00599 -2.294055,-0.8846852 -2.572473,-0.8846852 -0.278419,0 -1.126518,0.549602 -1.422752,0.3280063 -0.296231,-0.2215955 0.740793,-1.6646566 1.371794,-1.9804933 z"
           id="path3728"
           sodipodi:nodetypes="zzzzzzzzz" />
        <path
           style="display:inline;fill:#ffffff;fill-opacity:1;stroke:none;stroke-width:0.561889"
           d="M 8.6418696,2.3208821 C 9.1380683,2.3256442 10.370978,2.294364 10.572154,2.4344455 10.77333,2.5745266 10.508935,3.1633522 10.362985,3.438529 10.217038,3.7137057 9.5685092,4.4649389 9.1308712,4.4592557 8.6932325,4.4536012 8.2920625,3.5637113 8.1549825,3.430355 8.017902,3.2969986 7.1896132,3.0714583 7.1821859,2.7754632 7.1747561,2.4794681 8.1456709,2.3161172 8.6418696,2.3208821 Z"
           id="path3730"
           sodipodi:nodetypes="zzzzzzz" />
        <path
           style="display:inline;fill:#4e9a06;fill-opacity:1;stroke:none;stroke-width:0.586287"
           d="m 3.9349483,2.8706753 c 0.5900149,-0.094303 2.4531189,-0.4313116 2.560567,-0.2650394 0.107448,0.1662719 0.01909,1.0817679 0.039375,1.4417139 0.00857,0.1522318 1.0720352,0.556623 0.9947445,0.9469666 C 7.4952425,5.1679989 7.0319473,5.504877 6.1595642,5.5064511 5.3645803,5.5078824 5.3561653,6.4827603 4.9998587,6.5386494 4.8348843,6.564527 4.2851134,6.1645292 3.8582286,5.5316083 3.4701318,4.9561976 3.2551567,4.314426 3.1415094,4.2042459 2.668928,3.7460784 1.2154941,4.3613403 1.1123339,3.6268272 1.0091755,2.892314 3.3449326,2.9649787 3.9349483,2.8706753 Z"
           id="path3732"
           sodipodi:nodetypes="zzsssssszz" />
        <path
           style="display:inline;fill:#4e9a06;fill-opacity:1;stroke:none;stroke-width:0.611553"
           d="M 6.7229149,6.563391 C 7.0253921,6.5749373 8.5444875,6.7224174 8.6488966,7.2067607 8.7533057,7.691104 8.0186652,7.9373148 7.7929621,8.2708418 7.567259,8.604369 6.8222123,9.5024404 6.4902815,9.5123534 6.1583508,9.5222708 6.2331621,8.0162767 6.0963566,7.8579866 5.9595511,7.6996967 5.1422382,7.7295847 5.1177584,7.0923281 5.0932736,6.455071 6.4204383,6.5518452 6.7229149,6.563391 Z"
           id="path3734"
           sodipodi:nodetypes="zzzzzzz" />
        <path
           style="display:inline;fill:#4e9a06;fill-opacity:1;stroke:none;stroke-width:0.529065"
           d="m 12.131132,7.2325658 c 0.25468,0.010264 0.528368,-0.079866 0.620592,0.1207622 0.09222,0.2006291 0.0028,0.5229613 -0.06372,0.8342382 -0.06647,0.311277 -0.112116,0.7861866 -0.47986,0.7801904 -0.367745,-0.00597 -0.574863,-1.0635548 -0.690051,-1.2042571 -0.115188,-0.140702 -0.904767,-0.1533068 -0.938411,-0.5698187 -0.03365,-0.4165116 1.296765,0.028622 1.551445,0.038885 z"
           id="path3736"
           sodipodi:nodetypes="zzzzzzz" />
      </g>
      <g
         id="g3603"
         inkscape:label="group1"
         style="display:inline"
         transform="translate(0.02224633,9.8328921)">
        <path
           style="display:inline;fill:#c17d11;fill-opacity:1;stroke:none;stroke-width:0.529065"
           d="m 11.375556,6.2496358 c 0.254679,0.010264 0.997347,0.00344 1.284978,0.2873607 0.287631,0.283928 0.159078,0.8894775 0.09261,1.2007544 -0.06647,0.311277 -0.199499,0.8578137 -0.567243,0.8518175 -0.367745,-0.00597 -0.463631,-0.8855839 -0.578818,-1.0262861 -0.115188,-0.140702 -1.032839,0.063569 -1.053451,-0.5028801 -0.02061,-0.56645 0.567243,-0.8210292 0.821924,-0.8107664 z"
           id="path3587"
           sodipodi:nodetypes="zzzzzzz" />
        <path
           style="display:inline;fill:#c17d11;fill-opacity:1;stroke:none;stroke-width:0.529065"
           d="m 11.375556,6.2496358 c 0.254679,0.010264 0.997347,0.00344 1.284978,0.2873607 0.287631,0.283928 0.159078,0.8894775 0.09261,1.2007544 -0.06647,0.311277 -0.199499,0.8578137 -0.567243,0.8518175 -0.367745,-0.00597 -0.463631,-0.8855839 -0.578818,-1.0262861 -0.115188,-0.140702 -1.032839,0.063569 -1.053451,-0.5028801 -0.02061,-0.56645 0.567243,-0.8210292 0.821924,-0.8107664 z"
           id="path3589"
           sodipodi:nodetypes="zzzzzzz" />
        <path
           style="display:inline;fill:#c17d11;fill-opacity:1;stroke:none;stroke-width:0.348119"
           d="m 18.234182,7.4404206 c 0.149545,0.00119 0.170752,0.2917283 0.483461,0.3045073 0.104172,0.00425 0.130879,-0.3680779 0.241299,-0.3661785 0.107686,0.00185 0.44198,0.7038541 0.399862,0.9165331 -0.04212,0.2126792 -0.204718,0.940208 -0.437747,0.936132 -0.09016,-0.00157 -0.213823,-0.473813 -0.690282,-0.5580817 -0.548499,-0.09701 -0.616126,0.5026601 -0.79511,0.3223044 -0.08613,-0.086787 -0.374822,-0.3612873 -0.264835,-0.7280765 0.109985,-0.366789 0.818073,-0.8290933 1.063352,-0.8271401 z"
           id="path3591"
           sodipodi:nodetypes="ssszssszs" />
        <path
           style="display:inline;fill:#4e9a06;fill-opacity:1;stroke:none;stroke-width:0.586305"
           d="m 12.130805,3.9911785 c 0.630999,-0.3158377 2.187848,-0.6642421 3.381043,-0.67026 1.193196,-0.00601 5.806771,0.3525389 5.770752,0.8423409 -0.03602,0.489802 -2.250872,0.4712264 -3.173379,0.9618695 -0.922507,0.4906428 -0.167406,0.9520406 -0.841905,1.3339988 -0.674497,0.3819581 -2.061457,0.07522 -2.51308,0.069223 -0.451622,-0.00599 -2.294055,-0.8846852 -2.572473,-0.8846852 -0.278419,0 -1.126518,0.549602 -1.422752,0.3280063 -0.296231,-0.2215955 0.740793,-1.6646566 1.371794,-1.9804933 z"
           id="path3593"
           sodipodi:nodetypes="zzzzzzzzz" />
        <path
           style="display:inline;fill:#ffffff;fill-opacity:1;stroke:none;stroke-width:0.561889"
           d="M 8.6418696,2.3208821 C 9.1380683,2.3256442 10.370978,2.294364 10.572154,2.4344455 10.77333,2.5745266 10.508935,3.1633522 10.362985,3.438529 10.217038,3.7137057 9.5685092,4.4649389 9.1308712,4.4592557 8.6932325,4.4536012 8.2920625,3.5637113 8.1549825,3.430355 8.017902,3.2969986 7.1896132,3.0714583 7.1821859,2.7754632 7.1747561,2.4794681 8.1456709,2.3161172 8.6418696,2.3208821 Z"
           id="path3595"
           sodipodi:nodetypes="zzzzzzz" />
        <path
           style="display:inline;fill:#4e9a06;fill-opacity:1;stroke:none;stroke-width:0.586287"
           d="m 3.9349483,2.8706753 c 0.5900149,-0.094303 2.4531189,-0.4313116 2.560567,-0.2650394 0.107448,0.1662719 0.01909,1.0817679 0.039375,1.4417139 0.00857,0.1522318 1.0720352,0.556623 0.9947445,0.9469666 C 7.4952425,5.1679989 7.0319473,5.504877 6.1595642,5.5064511 5.3645803,5.5078824 5.3561653,6.4827603 4.9998587,6.5386494 4.8348843,6.564527 4.2851134,6.1645292 3.8582286,5.5316083 3.4701318,4.9561976 3.2551567,4.314426 3.1415094,4.2042459 2.668928,3.7460784 1.2154941,4.3613403 1.1123339,3.6268272 1.0091755,2.892314 3.3449326,2.9649787 3.9349483,2.8706753 Z"
           id="path3597"
           sodipodi:nodetypes="zzsssssszz" />
        <path
           style="display:inline;fill:#4e9a06;fill-opacity:1;stroke:none;stroke-width:0.611553"
           d="M 6.7229149,6.563391 C 7.0253921,6.5749373 8.5444875,6.7224174 8.6488966,7.2067607 8.7533057,7.691104 8.0186652,7.9373148 7.7929621,8.2708418 7.567259,8.604369 6.8222123,9.5024404 6.4902815,9.5123534 6.1583508,9.5222708 6.2331621,8.0162767 6.0963566,7.8579866 5.9595511,7.6996967 5.1422382,7.7295847 5.1177584,7.0923281 5.0932736,6.455071 6.4204383,6.5518452 6.7229149,6.563391 Z"
           id="path3599"
           sodipodi:nodetypes="zzzzzzz" />
        <path
           style="display:inline;fill:#4e9a06;fill-opacity:1;stroke:none;stroke-width:0.529065"
           d="m 12.131132,7.2325658 c 0.25468,0.010264 0.528368,-0.079866 0.620592,0.1207622 0.09222,0.2006291 0.0028,0.5229613 -0.06372,0.8342382 -0.06647,0.311277 -0.112116,0.7861866 -0.47986,0.7801904 -0.367745,-0.00597 -0.574863,-1.0635548 -0.690051,-1.2042571 -0.115188,-0.140702 -0.904767,-0.1533068 -0.938411,-0.5698187 -0.03365,-0.4165116 1.296765,0.028622 1.551445,0.038885 z"
           id="path3601"
           sodipodi:nodetypes="zzzzzzz" />
      </g>
    </g>
  </g>
</svg>
